<?xml version="1.0" encoding="UTF-8"?>
<svg viewBox="0 0 374.94849 429.33994" xmlns="http://www.w3.org/2000/svg">
 <g transform="matrix(.59121 0 0 .59121 382.5 -580.42)" stroke="#000">
  <path d="m-444.95 1167.5 15.343-8.8583v177.17l-15.343 8.8582z" fill="#800000"/>
  <path d="m-444.95 1167.5-15.343-8.8583v177.17l15.343 8.8582z" fill="#d40000"/>
  <path d="m-444.95 1149.8v17.717l-153.43 88.583v-17.716z" fill="#800000"/>
  <path d="m-444.95 1344.7v17.717l-153.43 88.583v-17.716z" fill="#800000"/>
  <path d="m-291.52 1256.1v-17.716l-153.43-88.583v17.717z" fill="#d40000"/>
  <path d="m-291.52 1451v-17.716l-153.43-88.583v17.717z" fill="#d40000"/>
  <path d="m-613.72 1442.1 15.343-8.8583 153.43 88.583-15.343 8.8582z" fill="#f55"/>
  <path d="m-214.8 1477.6-15.343-8.8582-153.43 88.583 15.343 8.8583z" fill="#0f0"/>
  <path d="m-383.57 1397.8 15.343-8.8582v177.17l-15.343 8.8583z" fill="#004900"/>
  <path d="m-444.95 1344.7 15.343-8.8582 153.43 88.583-15.343 8.8583z" fill="#f55"/>
  <path d="m-276.17 1442.1-15.343-8.8583-153.43 88.583 15.343 8.8582z" fill="#f55"/>
  <path d="m-276.17 1265-15.343-8.8583v177.17l15.343 8.8583z" fill="#d40000"/>
  <path d="m-444.95 1344.7-15.343-8.8582-153.43 88.583 15.343 8.8583z" fill="#f55"/>
  <path d="m-613.72 1265 15.343-8.8583v177.17l-15.343 8.8583z" fill="#800000"/>
  <path d="m-629.04 1238.4 184.09 106.31v212.59l-184.09-106.31v-212.59zm15.344 26.594v177.16l153.41 88.594v-177.19l-153.41-88.562z" fill="#d40000"/>
  <path d="m-214.8 1034.6 15.343-8.8583v177.17l-15.343 8.8583z" fill="#000080"/>
  <path d="m-214.8 1034.6-15.343-8.8583v177.17l15.343 8.8583z" fill="#00f"/>
  <path d="m-214.8 1016.9v17.717l-153.43 88.583v-17.716z" fill="#000080"/>
  <path d="m-214.8 1211.8v17.716l-153.43 88.583v-17.716z" fill="#000080"/>
  <path d="m-61.372 1123.2v-17.716l-153.43-88.583v17.717z" fill="#00f"/>
  <path d="m-61.372 1318.1v-17.716l-153.43-88.583v17.716z" fill="#00f"/>
  <path d="m-383.57 1309.3 15.343-8.8583 153.43 88.583-15.343 8.8582z" fill="#7272ff"/>
  <path d="m-214.8 1211.8 15.343-8.8583 153.43 88.583-15.343 8.8583z" fill="#7272ff"/>
  <path d="m-46.029 1309.3-15.343-8.8583-153.43 88.583 15.343 8.8582z" fill="#7272ff"/>
  <path d="m-46.029 1132.1-15.343-8.8583v177.17l15.343 8.8583z" fill="#00f"/>
  <path d="m-214.8 1211.8-15.343-8.8583-153.43 88.583 15.343 8.8583z" fill="#7272ff"/>
  <path d="m-383.57 1132.1 15.343-8.8583v177.17l-15.343 8.8583z" fill="#000080"/>
  <path d="m-30.677 1105.5-184.12 106.27-184.11-106.3 184.12-106.27 184.11 106.3zm-30.703-0.01-153.42-88.578-153.43 88.557 153.45 88.594 153.4-88.573z" fill="#7272ff"/>
  <path d="m-214.8 1300.4 15.343-8.8583v177.17l-15.343 8.8582z" fill="#004900"/>
  <path d="m-214.8 1300.4-15.343-8.8583v177.17l15.343 8.8582z" fill="#008000"/>
  <path d="m-214.8 1477.6v17.717l-153.43 88.583v-17.716z" fill="#004900"/>
  <path d="m-61.372 1389v-17.717l-153.43-88.583v17.716z" fill="#008000"/>
  <path d="m-61.372 1583.9v-17.717l-153.43-88.583v17.717z" fill="#008000"/>
  <path d="m-383.57 1575 15.343-8.8583 153.43 88.583-15.343 8.8583z" fill="#0f0"/>
  <path d="m-214.8 1477.6 15.343-8.8582 153.43 88.583-15.343 8.8583z" fill="#0f0"/>
  <path d="m-46.029 1575-15.343-8.8583-153.43 88.583 15.343 8.8583z" fill="#0f0"/>
  <path d="m-46.029 1397.8-15.343-8.8582v177.17l15.343 8.8583z" fill="#008000"/>
  <path d="m-30.698 1371.3-184.09 106.31v212.59l184.09-106.31v-212.59zm-15.344 26.594v177.16l-153.41 88.594v-177.19l153.41-88.562z" fill="#004900"/>
  <path d="m-214.81 1282.7-46.031 26.562v17.719l46.031-26.563v-17.719zm-76.719 44.281-76.688 44.281v17.719l76.688-44.281v-17.719z" fill="#004900"/>
  <path d="m-383.57 1486.4 2e-4 -88.583 153.43 88.583-1.9e-4 177.17-153.43-88.583-1.6e-4 -53.15-15.343 8.8582v53.15l184.12 106.3 2e-5 -212.6-184.12-106.3-9e-5 124.02z" fill="#008000"/>
  <path d="m-214.81 1265-46.031 26.562v17.719l46.031-26.562 153.44 88.562-153.44 88.594-153.41-88.594 76.688-44.281v-17.719l-107.38 62 184.09 106.31 184.12-106.31-184.12-106.28z" fill="#0f0"/>
  <path d="m-306.86 1353.5 76.715 44.291 1e-5 -177.17-153.43-88.583 9e-5 177.17 46.029 26.575-15.343 8.8584-46.029-26.575-2e-5 -212.6 184.12 106.3 6e-5 212.6-107.4-62.008z" fill="#00f"/>
  <path d="m-122.74 1353.5-76.715 44.291-1e-5 -177.17 153.43-88.583-9e-5 177.17-46.029 26.575 15.343 8.8584 46.029-26.575 2e-5 -212.6-184.12 106.3-6e-5 212.6 107.4-62.008z" fill="#000080"/>
  <path d="m-368.23 1194.1 76.715 44.292-153.43 88.583-153.43-88.583 153.43-88.583 46.029 26.575 7e-5 -17.716-46.029-26.575-184.12 106.3 184.12 106.3 184.12-106.3-107.4-62.008z" fill="#f55"/>
  <path d="m-260.84 1238.4-184.09 106.31v212.59l168.75-97.437-15.344-8.875-138.06 79.75v-177.19l153.41-88.562v88.562l15.344 8.875v-124.03zm-15.344 150.59v35.437l15.344 8.8438v-35.406l-15.344-8.875z" fill="#800000"/>
 </g>
</svg>
